{
  "accessors": [
    {
      "bufferView": 2,
      "componentType": 5126,
      "count": 27427,
      "max": [
        1.2453700304031372,
        1.967584490776062,
        1.2377996444702148
      ],
      "min": [
        -1.244118332862854,
        -2.267667055130005,
        -1.2377996444702148
      ],
      "type": "VEC3"
    },
    {
      "bufferView": 2,
      "byteOffset": 329124,
      "componentType": 5126,
      "count": 27427,
      "max": [
        1.0,
        1.0,
        1.0
      ],
      "min": [
        -1.0,
        -1.0,
        -1.0
      ],
      "type": "VEC3"
    },
    {
      "bufferView": 3,
      "componentType": 5126,
      "count": 27427,
      "max": [
        0.9999989867210388,
        1.0,
        1.0,
        1.0
      ],
      "min": [
        -0.999962568283081,
        -1.0,
        -1.0,
        -1.0
      ],
      "type": "VEC4"
    },
    {
      "bufferView": 1,
      "componentType": 5126,
      "count": 27427,
      "max": [
        0.9805572032928467,
        1.0
      ],
      "min": [
        -3.693468197951688e-09,
        0.0
      ],
      "type": "VEC2"
    },
    {
      "bufferView": 1,
      "byteOffset": 219416,
      "componentType": 5126,
      "count": 27427,
      "max": [
        0.9805572032928467,
        1.0
      ],
      "min": [
        -3.693468197951688e-09,
        0.0
      ],
      "type": "VEC2"
    },
    {
      "bufferView": 1,
      "byteOffset": 438832,
      "componentType": 5126,
      "count": 27427,
      "max": [
        0.9805572032928467,
        1.0
      ],
      "min": [
        -3.693468197951688e-09,
        0.0
      ],
      "type": "VEC2"
    },
    {
      "bufferView": 1,
      "byteOffset": 658248,
      "componentType": 5126,
      "count": 27427,
      "max": [
        0.9805572032928467,
        1.0
      ],
      "min": [
        -3.693468197951688e-09,
        0.0
      ],
      "type": "VEC2"
    },
    {
      "bufferView": 0,
      "componentType": 5125,
      "count": 127377,
      "type": "SCALAR"
    }
  ],
  "asset": {
    "extras": {
      "author": "KilianPohl (https://sketchfab.com/Kilianpohl91)",
      "license": "CC-BY-4.0 (http://creativecommons.org/licenses/by/4.0/)",
      "source": "https://sketchfab.com/3d-models/fallout-mini-nuke-a0c7a3266d3f4a73924cde577cda0c47",
      "title": "Fallout Mini Nuke"
    },
    "generator": "Sketchfab-16.12.0",
    "version": "2.0"
  },
  "bufferViews": [
    {
      "buffer": 0,
      "byteLength": 509508,
      "name": "floatBufferViews",
      "target": 34963
    },
    {
      "buffer": 0,
      "byteLength": 877664,
      "byteOffset": 509508,
      "byteStride": 8,
      "name": "floatBufferViews",
      "target": 34962
    },
    {
      "buffer": 0,
      "byteLength": 658248,
      "byteOffset": 1387172,
      "byteStride": 12,
      "name": "floatBufferViews",
      "target": 34962
    },
    {
      "buffer": 0,
      "byteLength": 438832,
      "byteOffset": 2045420,
      "byteStride": 16,
      "name": "floatBufferViews",
      "target": 34962
    }
  ],
  "buffers": [
    {
      "byteLength": 2484252,
      "uri": "scene.bin"
    }
  ],
  "images": [
    {
      "uri": "textures/MiniNuke_Baked.002_baseColor.png"
    },
    {
      "uri": "textures/MiniNuke_Baked.002_metallicRoughness.png"
    },
    {
      "uri": "textures/MiniNuke_Baked.002_normal.png"
    }
  ],
  "materials": [
    {
      "doubleSided": true,
      "name": "MiniNuke_Baked.002",
      "normalTexture": {
        "index": 2
      },
      "pbrMetallicRoughness": {
        "baseColorTexture": {
          "index": 0
        },
        "metallicRoughnessTexture": {
          "index": 1,
          "texCoord": 1
        }
      }
    }
  ],
  "meshes": [
    {
      "name": "Object_0",
      "primitives": [
        {
          "attributes": {
            "NORMAL": 1,
            "POSITION": 0,
            "TANGENT": 2,
            "TEXCOORD_0": 3,
            "TEXCOORD_1": 4,
            "TEXCOORD_2": 5,
            "TEXCOORD_3": 6
          },
          "indices": 7,
          "material": 0,
          "mode": 4
        }
      ]
    }
  ],
  "nodes": [
    {
      "children": [
        1
      ],
      "matrix": [
        1.0,
        0.0,
        0.0,
        0.0,
        0.0,
        2.220446049250313e-16,
        -1.0,
        0.0,
        0.0,
        1.0,
        2.220446049250313e-16,
        0.0,
        0.0,
        0.0,
        0.0,
        1.0
      ],
      "name": "Sketchfab_model"
    },
    {
      "children": [
        2
      ],
      "name": "root"
    },
    {
      "children": [
        3
      ],
      "matrix": [
        1.0,
        0.0,
        0.0,
        0.0,
        0.0,
        2.220446049250313e-16,
        1.0,
        0.0,
        0.0,
        -1.0,
        2.220446049250313e-16,
        0.0,
        0.0,
        0.0,
        0.0,
        1.0
      ],
      "name": "GLTF_SceneRootNode"
    },
    {
      "children": [
        4
      ],
      "matrix": [
        1.0,
        0.0,
        0.0,
        0.0,
        0.0,
        1.0,
        0.0,
        0.0,
        0.0,
        0.0,
        1.0,
        0.0,
        0.0,
        -0.35154613852500916,
        0.0,
        1.0
      ],
      "name": "MiniNuke_Baked_0"
    },
    {
      "mesh": 0,
      "name": "Object_4"
    }
  ],
  "samplers": [
    {
      "magFilter": 9729,
      "minFilter": 9987,
      "wrapS": 10497,
      "wrapT": 10497
    }
  ],
  "scene": 0,
  "scenes": [
    {
      "name": "Sketchfab_Scene",
      "nodes": [
        0
      ]
    }
  ],
  "textures": [
    {
      "sampler": 0,
      "source": 0
    },
    {
      "sampler": 0,
      "source": 1
    },
    {
      "sampler": 0,
      "source": 2
    }
  ]
}
